<svg width="31" height="29" viewBox="0 0 31 29" fill="none" xmlns="http://www.w3.org/2000/svg">
<g id="BellOutline">
<path id="Vector" d="M19.375 20.5417H25.8333L24.0185 18.844C23.7748 18.6159 23.5815 18.3452 23.4496 18.0473C23.3178 17.7494 23.2499 17.43 23.25 17.1076V13.2917C23.2502 11.792 22.7534 10.3292 21.8282 9.10466C20.9029 7.88007 19.5946 6.95391 18.0833 6.45371V6.04167C18.0833 5.40073 17.8112 4.78604 17.3267 4.33283C16.8422 3.87961 16.1851 3.625 15.5 3.625C14.8148 3.625 14.1578 3.87961 13.6733 4.33283C13.1888 4.78604 12.9167 5.40073 12.9167 6.04167V6.45371C9.90707 7.44938 7.74999 10.1355 7.74999 13.2917V17.1088C7.74999 17.7589 7.47357 18.3836 6.98145 18.844L5.16666 20.5417H11.625M19.375 20.5417V21.75C19.375 22.7114 18.9667 23.6334 18.24 24.3133C17.5133 24.9931 16.5277 25.375 15.5 25.375C14.4723 25.375 13.4867 24.9931 12.76 24.3133C12.0332 23.6334 11.625 22.7114 11.625 21.75V20.5417M19.375 20.5417H11.625" stroke="black" stroke-width="2" stroke-linecap="round" stroke-linejoin="round"/>
</g>
</svg>
