<svg width="25" height="23" viewBox="0 0 25 23" fill="none" xmlns="http://www.w3.org/2000/svg">
<g id=".">
<path id="Vector" fill-rule="evenodd" clip-rule="evenodd" d="M3.75 5.75001C3.75 5.44501 3.8817 5.1525 4.11612 4.93683C4.35054 4.72117 4.66848 4.60001 5 4.60001H20C20.3315 4.60001 20.6495 4.72117 20.8839 4.93683C21.1183 5.1525 21.25 5.44501 21.25 5.75001C21.25 6.05501 21.1183 6.34751 20.8839 6.56318C20.6495 6.77885 20.3315 6.90001 20 6.90001H5C4.66848 6.90001 4.35054 6.77885 4.11612 6.56318C3.8817 6.34751 3.75 6.05501 3.75 5.75001ZM3.75 11.5C3.75 11.195 3.8817 10.9025 4.11612 10.6868C4.35054 10.4712 4.66848 10.35 5 10.35H20C20.3315 10.35 20.6495 10.4712 20.8839 10.6868C21.1183 10.9025 21.25 11.195 21.25 11.5C21.25 11.805 21.1183 12.0975 20.8839 12.3132C20.6495 12.5288 20.3315 12.65 20 12.65H5C4.66848 12.65 4.35054 12.5288 4.11612 12.3132C3.8817 12.0975 3.75 11.805 3.75 11.5ZM3.75 17.25C3.75 16.945 3.8817 16.6525 4.11612 16.4368C4.35054 16.2212 4.66848 16.1 5 16.1H20C20.3315 16.1 20.6495 16.2212 20.8839 16.4368C21.1183 16.6525 21.25 16.945 21.25 17.25C21.25 17.555 21.1183 17.8475 20.8839 18.0632C20.6495 18.2788 20.3315 18.4 20 18.4H5C4.66848 18.4 4.35054 18.2788 4.11612 18.0632C3.8817 17.8475 3.75 17.555 3.75 17.25Z" fill="black"/>
</g>
</svg>
