<svg width="31" height="31" viewBox="0 0 31 31" fill="none" xmlns="http://www.w3.org/2000/svg">
<g id="UserCircle">
<path id="Vector" fill-rule="evenodd" clip-rule="evenodd" d="M27.9 15.5001C27.9 18.7888 26.5936 21.9428 24.2681 24.2682C21.9427 26.5937 18.7887 27.9001 15.5 27.9001C12.2113 27.9001 9.05733 26.5937 6.73188 24.2682C4.40643 21.9428 3.10001 18.7888 3.10001 15.5001C3.10001 12.2114 4.40643 9.05743 6.73188 6.73197C9.05733 4.40652 12.2113 3.1001 15.5 3.1001C18.7887 3.1001 21.9427 4.40652 24.2681 6.73197C26.5936 9.05743 27.9 12.2114 27.9 15.5001ZM18.6 10.8501C18.6 11.6723 18.2734 12.4608 17.692 13.0421C17.1107 13.6235 16.3222 13.9501 15.5 13.9501C14.6778 13.9501 13.8893 13.6235 13.308 13.0421C12.7266 12.4608 12.4 11.6723 12.4 10.8501C12.4 10.0279 12.7266 9.23943 13.308 8.65807C13.8893 8.0767 14.6778 7.7501 15.5 7.7501C16.3222 7.7501 17.1107 8.0767 17.692 8.65807C18.2734 9.23943 18.6 10.0279 18.6 10.8501ZM15.5 17.0501C14.016 17.0498 12.5632 17.4756 11.3141 18.2768C10.065 19.078 9.07222 20.221 8.45371 21.5699C9.32586 22.5845 10.4071 23.3985 11.6234 23.9561C12.8396 24.5136 14.1621 24.8016 15.5 24.8001C16.838 24.8016 18.1604 24.5136 19.3766 23.9561C20.5929 23.3985 21.6742 22.5845 22.5463 21.5699C21.9278 20.221 20.935 19.078 19.6859 18.2768C18.4368 17.4756 16.984 17.0498 15.5 17.0501Z" fill="black"/>
</g>
</svg>
