<svg width="29" height="29" viewBox="0 0 29 29" fill="none" xmlns="http://www.w3.org/2000/svg">
<g id="UserGroup">
<path id="Vector" d="M18.85 8.7001C18.85 9.85379 18.3917 10.9602 17.5759 11.776C16.7601 12.5918 15.6537 13.0501 14.5 13.0501C13.3463 13.0501 12.2399 12.5918 11.4241 11.776C10.6083 10.9602 10.15 9.85379 10.15 8.7001C10.15 7.54641 10.6083 6.43997 11.4241 5.62418C12.2399 4.8084 13.3463 4.3501 14.5 4.3501C15.6537 4.3501 16.7601 4.8084 17.5759 5.62418C18.3917 6.43997 18.85 7.54641 18.85 8.7001ZM26.1 11.6001C26.1 12.3692 25.7945 13.1069 25.2506 13.6507C24.7068 14.1946 23.9691 14.5001 23.2 14.5001C22.4309 14.5001 21.6932 14.1946 21.1494 13.6507C20.6055 13.1069 20.3 12.3692 20.3 11.6001C20.3 10.831 20.6055 10.0933 21.1494 9.54949C21.6932 9.00563 22.4309 8.7001 23.2 8.7001C23.9691 8.7001 24.7068 9.00563 25.2506 9.54949C25.7945 10.0933 26.1 10.831 26.1 11.6001ZM20.3 21.7501C20.3 20.2118 19.6889 18.7366 18.6012 17.6489C17.5135 16.5612 16.0383 15.9501 14.5 15.9501C12.9617 15.9501 11.4865 16.5612 10.3988 17.6489C9.31107 18.7366 8.7 20.2118 8.7 21.7501V26.1001H20.3V21.7501ZM8.7 11.6001C8.7 12.3692 8.39446 13.1069 7.85061 13.6507C7.30675 14.1946 6.56913 14.5001 5.8 14.5001C5.03087 14.5001 4.29324 14.1946 3.74939 13.6507C3.20553 13.1069 2.9 12.3692 2.9 11.6001C2.9 10.831 3.20553 10.0933 3.74939 9.54949C4.29324 9.00563 5.03087 8.7001 5.8 8.7001C6.56913 8.7001 7.30675 9.00563 7.85061 9.54949C8.39446 10.0933 8.7 10.831 8.7 11.6001ZM23.2 26.1001V21.7501C23.2021 20.2759 22.8278 18.8255 22.1125 17.5364C22.7554 17.3719 23.4273 17.3564 24.077 17.491C24.7268 17.6257 25.3372 17.907 25.8617 18.3135C26.3863 18.7199 26.811 19.2408 27.1036 19.8364C27.3962 20.432 27.5489 21.0865 27.55 21.7501V26.1001H23.2ZM6.8875 17.5364C6.17228 18.8255 5.79797 20.2759 5.8 21.7501V26.1001H1.45V21.7501C1.44972 21.0861 1.60147 20.4308 1.89362 19.8344C2.18577 19.2381 2.61057 18.7166 3.13545 18.3099C3.66034 17.9031 4.27138 17.6219 4.92175 17.4878C5.57211 17.3538 6.24454 17.3704 6.8875 17.5364Z" fill="black"/>
</g>
</svg>
